<svg width="67" height="50" viewBox="0 0 67 50" fill="none" xmlns="http://www.w3.org/2000/svg">
<circle cx="34.5" cy="25" r="25" fill="#68B738"/>
<g clip-path="url(#clip0)">
<path d="M61.5498 13.9C62.1271 12.9816 62.8943 12.1973 63.7998 11.6C64.2998 11.25 64.5998 11.25 64.8998 11.9C65.2998 12.85 65.6498 13.85 65.3498 14.9C65.2953 15.0781 65.285 15.2668 65.3198 15.4498C65.3547 15.6328 65.4336 15.8045 65.5498 15.95C65.8498 16.35 66.0998 16.75 66.3498 17.1C66.6901 17.5319 66.9108 18.0457 66.9898 18.5898C67.0688 19.1339 67.0033 19.6892 66.7998 20.2C66.6163 20.6959 66.5815 21.2347 66.6998 21.75C66.7998 22.245 66.7998 22.755 66.6998 23.25C66.6594 23.6207 66.5094 23.971 66.2689 24.256C66.0285 24.541 65.7085 24.7478 65.3498 24.85C64.7103 24.9717 64.1395 25.3285 63.7498 25.85C63.7026 25.9268 63.6364 25.9902 63.5576 26.034C63.4788 26.0778 63.39 26.1005 63.2998 26.1C62.6998 26.2 61.1998 24.85 61.1998 24.25V23.95C61.2498 22.15 61.1498 22 59.4998 21.25C59.1545 21.1282 58.8451 20.922 58.5998 20.65C58.2998 20.25 57.8998 20.3 57.4498 20.45C56.9998 20.6 56.7498 20.9 56.7998 21.4C56.9506 22.6105 57.0008 23.8313 56.9498 25.05C56.9532 25.1891 56.9873 25.3257 57.0498 25.45C58.5998 27.7 59.1998 30.35 59.9498 32.9C60.5498 34.85 61.6498 35.9 63.6498 36.05C63.9699 36.0756 64.2875 36.1257 64.5998 36.2C65.0107 36.2661 65.3924 36.4538 65.6955 36.7391C65.9985 37.0243 66.2091 37.3939 66.2998 37.8C66.6498 38.85 66.4498 39.1 65.3998 39.1H62.1498C61.7291 39.1213 61.3166 38.9778 60.9998 38.7C60.4938 38.273 59.919 37.9348 59.2998 37.7C58.6154 37.4474 58.023 36.9944 57.5998 36.4C57.0142 35.5818 56.3438 34.8276 55.5998 34.15C54.1998 32.7 52.6998 31.3 51.3998 29.8C50.4102 28.7779 49.8393 27.4222 49.7998 26C49.7998 25.55 49.6998 25.35 49.1998 25.55C49.0501 25.645 48.8771 25.6969 48.6998 25.7C47.2998 25.7 46.5998 26.55 46.0998 27.8C45.6498 28.85 45.0498 29.85 44.4998 30.9C44.188 31.5573 44.0176 32.2728 43.9998 33C43.9998 34.2 44.2998 34.6 45.3998 35C46.0998 35.25 46.7498 35.5 47.0998 36.2C47.4998 37 47.3998 37.2 46.5498 37.25H43.1498C42.9538 37.2695 42.7567 37.2268 42.5862 37.1281C42.4158 37.0294 42.2806 36.8797 42.1998 36.7L41.2998 35.2C41.0345 34.8087 40.8647 34.3605 40.8039 33.8916C40.7431 33.4227 40.7931 32.9461 40.9498 32.5C41.1662 31.6318 41.1833 30.7258 40.9998 29.85C40.8738 29.2401 40.8847 28.6098 41.0317 28.0046C41.1786 27.3993 41.4581 26.8342 41.8498 26.35C42.1498 26 42.1498 25.85 41.6498 25.75C39.6053 25.3157 37.6232 24.627 35.7498 23.7C35.7366 23.7 35.7239 23.6948 35.7145 23.6854C35.7051 23.676 35.6998 23.6633 35.6998 23.65C34.0998 23.05 33.7998 23.15 33.3498 24.8C32.9498 26.2 32.5498 27.6 32.2498 29.05C31.8998 30.65 32.2998 32.15 32.7998 33.65C32.9998 34.25 33.5998 34.2 34.0498 34.35C35.0498 34.65 35.8998 35.05 36.2998 36.1C36.6498 36.9 36.5998 37 35.7498 37C34.8998 37 34.0498 36.95 33.1498 37C32.3904 37.0138 31.6491 36.7667 31.0498 36.3C28.6498 34.7 27.9498 32.25 27.7498 29.6C27.6498 27.95 26.7498 26.65 25.6998 25.4C25.4998 25.15 25.2998 25.05 24.9998 25.25C23.9266 25.8418 22.8061 26.3435 21.6498 26.75C19.237 27.602 17.1197 29.1293 15.5498 31.15C14.9637 31.8875 14.584 32.7676 14.4498 33.7C14.2998 34.6 14.5498 35 15.4498 35.25C16.3498 35.5 16.7998 36 16.8998 36.95C16.9498 37.35 16.7998 37.55 16.3998 37.55H12.3498C12.2173 37.5406 12.089 37.4994 11.9758 37.4297C11.8626 37.3601 11.768 37.2641 11.6998 37.15C11.0718 36.3724 10.7357 35.3995 10.7498 34.4C10.7236 32.6725 10.8744 30.9468 11.1998 29.25C11.2666 28.7419 11.4563 28.2577 11.7525 27.8395C12.0488 27.4212 12.4426 27.0816 12.8998 26.85C15.8498 25.45 17.3998 22.8 18.7998 20.05C19.0998 19.5 18.8498 19.4 18.3498 19.45C16.9505 19.6443 15.6247 20.1953 14.4998 21.05C13.0269 22.1245 11.6395 23.3113 10.3498 24.6C8.97466 25.9969 7.15119 26.8643 5.19984 27.05C1.54984 27.25 -0.150162 25.2 -0.000162372 21.9C0.0333689 20.7748 0.457661 19.6964 1.19984 18.85C1.45785 18.5155 1.8097 18.2655 2.21047 18.1319C2.61124 17.9983 3.04273 17.9872 3.44984 18.1C4.19984 18.3 4.39984 18.7 4.09984 19.45C3.94984 19.75 3.74984 20 3.59984 20.3C3.38414 20.6065 3.2156 20.9436 3.09984 21.3C2.54984 22.8 3.29984 23.85 4.84984 24C6.49984 24.15 7.84984 23.45 9.09984 22.45C10.6058 21.2442 11.9502 19.8494 13.0998 18.3C13.9595 17.1687 15.0419 16.2257 16.2802 15.5291C17.5186 14.8325 18.8866 14.3972 20.2998 14.25C21.4498 14.1 22.4498 13.6 23.5498 13.3C25.6071 12.6728 27.7493 12.3692 29.8998 12.4C30.8959 12.4415 31.8881 12.2533 32.7998 11.85C35.2498 10.85 37.7998 10.85 40.3498 11.35C42.3498 11.75 44.3498 12.25 46.2998 12.75C47.4603 12.9663 48.6536 12.9322 49.7998 12.65C51.9942 12.0938 54.2387 11.7588 56.4998 11.65C57.9811 11.578 59.4574 11.8698 60.7998 12.5C61.7998 12.95 61.7998 12.95 61.5498 13.9Z" fill="black"/>
</g>
<defs>
<clipPath id="clip0">
<rect width="67" height="28" fill="white" transform="translate(0 11)"/>
</clipPath>
</defs>
</svg>
