<svg width="268" height="112" viewBox="0 0 268 112" fill="none" xmlns="http://www.w3.org/2000/svg">
<g clip-path="url(#clip0)">
<path d="M246.2 11.6C248.509 7.92611 251.578 4.78916 255.2 2.39995C257.2 0.999951 258.4 0.999951 259.6 3.59995C261.2 7.39995 262.6 11.4 261.4 15.6C261.182 16.3123 261.141 17.0671 261.28 17.799C261.419 18.5309 261.735 19.2177 262.2 19.7999C263.4 21.4 264.4 23 265.4 24.4C266.761 26.1275 267.644 28.1826 267.96 30.359C268.276 32.5355 268.014 34.7567 267.2 36.7999C266.466 38.7836 266.327 40.9384 266.8 43C267.2 44.98 267.2 47.0199 266.8 49C266.638 50.4828 266.038 51.8837 265.076 53.0237C264.115 54.1638 262.835 54.9911 261.4 55.4C258.842 55.8867 256.559 57.3137 255 59.4C254.811 59.7072 254.546 59.9606 254.231 60.1357C253.916 60.3109 253.561 60.4019 253.2 60.4C250.8 60.8 244.8 55.4 244.8 53V51.7999C245 44.5999 244.6 44 238 41C236.619 40.5128 235.381 39.6877 234.4 38.5999C233.2 37 231.6 37.2 229.8 37.7999C228 38.3999 227 39.5999 227.2 41.5999C227.803 46.4417 228.004 51.3251 227.8 56.2C227.813 56.7563 227.95 57.3028 228.2 57.7999C234.4 66.7999 236.8 77.4 239.8 87.6C242.2 95.4 246.6 99.6 254.6 100.2C255.88 100.302 257.151 100.503 258.4 100.8C260.044 101.064 261.57 101.815 262.783 102.956C263.995 104.097 264.837 105.575 265.2 107.2C266.6 111.4 265.8 112.4 261.6 112.4H248.6C246.917 112.485 245.267 111.911 244 110.8C241.976 109.092 239.677 107.739 237.2 106.8C234.462 105.789 232.093 103.977 230.4 101.6C228.057 98.3269 225.376 95.3102 222.4 92.6C216.8 86.7999 210.8 81.2 205.6 75.2C201.642 71.1116 199.358 65.6886 199.2 60C199.2 58.2 198.8 57.4 196.8 58.2C196.201 58.5799 195.509 58.7875 194.8 58.7999C189.2 58.7999 186.4 62.2 184.4 67.2C182.6 71.3999 180.2 75.4 178 79.6C176.753 82.229 176.071 85.0908 176 88C176 92.8 177.2 94.4 181.6 96C184.4 97 187 98 188.4 100.8C190 104 189.6 104.8 186.2 105H172.6C171.816 105.078 171.027 104.907 170.346 104.512C169.664 104.118 169.123 103.519 168.8 102.8L165.2 96.8C164.139 95.2344 163.46 93.4419 163.216 91.5664C162.973 89.6908 163.173 87.7843 163.8 86C164.666 82.527 164.734 78.9031 164 75.4C163.496 72.9602 163.539 70.4389 164.127 68.018C164.715 65.5971 165.833 63.3367 167.4 61.4C168.6 60 168.6 59.4 166.6 59C158.422 57.2627 150.494 54.5079 143 50.7999C142.947 50.7999 142.896 50.7789 142.859 50.7414C142.821 50.7039 142.8 50.653 142.8 50.5999C136.4 48.1999 135.2 48.6 133.4 55.2C131.8 60.7999 130.2 66.3999 129 72.2C127.6 78.6 129.2 84.6 131.2 90.6C132 93 134.4 92.8 136.2 93.4C140.2 94.6 143.6 96.2 145.2 100.4C146.6 103.6 146.4 104 143 104C139.6 104 136.2 103.8 132.6 104C129.562 104.055 126.597 103.067 124.2 101.2C114.6 94.7999 111.8 85 111 74.4C110.6 67.8 107 62.5999 102.8 57.5999C102 56.5999 101.2 56.2 100 57C95.707 59.3671 91.225 61.3739 86.6001 63C76.9486 66.4079 68.4793 72.5169 62.2001 80.6C59.8554 83.5499 58.3369 87.0701 57.8001 90.8C57.2001 94.4 58.2001 96 61.8001 97C65.4001 98 67.2001 100 67.6001 103.8C67.8001 105.4 67.2001 106.2 65.6001 106.2H49.4001C48.8699 106.162 48.3566 105.997 47.9039 105.719C47.4513 105.44 47.0726 105.056 46.8001 104.6C44.2878 101.49 42.9434 97.5979 43.0001 93.6C42.8951 86.6898 43.4983 79.7871 44.8001 73C45.067 70.9673 45.8259 69.0305 47.0109 67.3576C48.1959 65.6847 49.7712 64.3262 51.6001 63.4C63.4001 57.8 69.6001 47.2 75.2001 36.2C76.4001 34 75.4001 33.5999 73.4001 33.7999C67.8028 34.577 62.4995 36.781 58.0001 40.2C52.1085 44.4976 46.5585 49.2452 41.4001 54.4C35.8994 59.9873 28.6055 63.4572 20.8001 64.2C6.20008 65 -0.599917 56.7999 8.29324e-05 43.5999C0.134208 39.0991 1.83138 34.7855 4.80008 31.4C5.83213 30.0619 7.23955 29.0619 8.84262 28.5276C10.4457 27.9932 12.1716 27.9488 13.8001 28.4C16.8001 29.1999 17.6001 30.7999 16.4001 33.7999C15.8001 35 15.0001 36 14.4001 37.2C13.5373 38.4259 12.8631 39.7742 12.4001 41.2C10.2001 47.2 13.2001 51.4 19.4001 52C26.0001 52.5999 31.4001 49.7999 36.4001 45.7999C42.4239 40.9764 47.8015 35.3972 52.4001 29.2C55.8386 24.6748 60.1683 20.9025 65.1217 18.1162C70.0752 15.3299 75.5473 13.5886 81.2001 13C85.8001 12.4 89.8001 10.4 94.2001 9.19995C102.429 6.69116 110.998 5.47667 119.6 5.59995C123.584 5.76588 127.553 5.01314 131.2 3.39995C141 -0.600049 151.2 -0.600049 161.4 1.39995C169.4 2.99995 177.4 4.99995 185.2 6.99995C189.842 7.8649 194.615 7.72853 199.2 6.59995C207.977 4.37502 216.956 3.035 226 2.59995C231.925 2.31168 237.83 3.47903 243.2 5.99995C247.2 7.79995 247.2 7.79995 246.2 11.6Z" fill="black"/>
</g>
<defs>
<clipPath id="clip0">
<rect width="268" height="112" fill="white"/>
</clipPath>
</defs>
</svg>
