<svg width="78" height="80" viewBox="0 0 78 80" fill="none" xmlns="http://www.w3.org/2000/svg">
<path d="M64.0155 34.713H14.0309C12.2765 34.713 10.8494 33.2954 10.8494 31.5527V22.0845C10.8494 20.3418 12.2765 18.9236 14.0309 18.9236H64.0149C65.7687 18.9236 67.1952 20.3418 67.1952 22.0845V31.5533C67.1958 33.2954 65.7693 34.713 64.0155 34.713ZM14.0309 21.3458C13.6275 21.3458 13.2869 21.6843 13.2869 22.0845V31.5533C13.2869 31.9602 13.6208 32.2915 14.0309 32.2915H64.0149C64.4244 32.2915 64.7577 31.9602 64.7577 31.5533V22.0845C64.7577 21.6837 64.4171 21.3458 64.0149 21.3458H14.0309Z" fill="white"/>
<path d="M57.0447 67.1492H20.999C17.6218 67.1492 14.8741 64.4194 14.8741 61.0629V33.5019C14.8741 32.8334 15.4201 32.2909 16.0929 32.2909C16.7656 32.2909 17.3116 32.8334 17.3116 33.5019V61.0629C17.3116 63.0836 18.9661 64.727 20.999 64.727H57.0447C59.077 64.727 60.7308 63.0836 60.7308 61.0629V33.5019C60.7308 32.8334 61.2768 32.2909 61.9496 32.2909C62.6223 32.2909 63.1683 32.8334 63.1683 33.5019V61.0629C63.1683 64.4194 60.4213 67.1492 57.0447 67.1492Z" fill="white"/>
<path d="M39.0226 67.1492C38.3498 67.1492 37.8038 66.6072 37.8038 65.9381V33.5019C37.8038 32.8334 38.3498 32.2909 39.0226 32.2909C39.6953 32.2909 40.2413 32.8334 40.2413 33.5019V65.9375C40.2413 66.6072 39.6959 67.1492 39.0226 67.1492Z" fill="white"/>
<path d="M23.8113 21.3416C19.9967 19.2876 18.5732 14.5329 20.6383 10.7416C22.7023 6.95219 27.4865 5.53705 31.303 7.5874C37.117 10.7168 40.2565 19.4474 40.387 19.8174L38.0878 20.621C38.0585 20.5386 35.1256 12.3996 30.1434 9.71767C27.5078 8.30193 24.2062 9.27926 22.7821 11.8946C21.3568 14.5123 22.3391 17.7943 24.9734 19.2119L23.8113 21.3416Z" fill="white"/>
<path d="M54.2314 21.3415L53.0711 19.2112C54.3478 18.5239 55.2783 17.3849 55.6927 16.0037C56.1064 14.6219 55.9535 13.1625 55.2618 11.8951C54.572 10.6265 53.4264 9.70248 52.0364 9.29132C50.6458 8.88017 49.1784 9.03155 47.9024 9.71762C42.9202 12.3989 39.9872 20.538 39.958 20.6203L37.6588 19.8168C37.7892 19.4468 40.9281 10.7162 46.7422 7.58735C48.5898 6.59305 50.7183 6.37385 52.7317 6.9697C54.7469 7.56494 56.4062 8.90499 57.4062 10.7416C58.4074 12.5776 58.6286 14.6915 58.029 16.694C57.4288 18.6959 56.0802 20.346 54.2314 21.3415Z" fill="white"/>
<path d="M61.9496 50.9316H16.0929C15.4201 50.9316 14.8741 50.389 14.8741 49.7205C14.8741 49.052 15.4201 48.5095 16.0929 48.5095H61.9496C62.6223 48.5095 63.1683 49.052 63.1683 49.7205C63.1683 50.389 62.6229 50.9316 61.9496 50.9316Z" fill="white"/>
</svg>
