<svg width="191" height="38" viewBox="0 0 191 38" fill="none" xmlns="http://www.w3.org/2000/svg">
<g clip-path="url(#clip0)">
<path d="M6.06994 20.72V18.46C12.7536 17.5423 19.4937 17.0979 26.2399 17.13C26.2399 17.73 26.2399 18.34 26.1799 18.95C28.0975 18.099 30.1127 17.4878 32.1799 17.13C30.8624 13.722 28.4617 10.8412 25.347 8.93089C22.2324 7.02054 18.5764 6.18643 14.9414 6.55686C11.3064 6.92729 7.89373 8.48175 5.22846 10.9811C2.56319 13.4805 0.79291 16.7863 0.189941 20.39L6.06994 20.72Z" fill="#FDC305"/>
<path d="M27.2401 24.23C26.0801 25.51 25.8501 25.43 25.8501 27.68C25.8501 28.59 25.8501 32.58 25.8501 36.86C28.1426 35.346 30.0246 33.2879 31.3281 30.8694C32.6316 28.451 33.3159 25.7474 33.3201 23C33.3069 21.9592 33.1998 20.9216 33.0001 19.9C30.9283 21.1295 28.9968 22.5814 27.2401 24.23Z" fill="#FDC305"/>
<path d="M6.36 25.72C6.36 25.72 2.57 24.28 1.17 23.89C0.787067 23.7693 0.396097 23.6757 0 23.61C0.108395 26.4959 0.965588 29.3041 2.48739 31.7586C4.00919 34.2131 6.14326 36.2296 8.68 37.61L6.36 25.72Z" fill="#FDC305"/>
<path d="M26.2899 17.1199C26.3306 11.5986 25.8619 6.08523 24.8899 0.649943C24.8899 0.649943 24.7499 -0.640057 23.9999 0.409943C23.4108 1.65808 23.0066 2.98533 22.7999 4.34994C18.5417 4.07571 14.2674 4.18952 10.0299 4.68994C9.23988 1.99994 7.84988 0.749943 7.17988 0.999943C6.50988 1.24994 6.45988 4.30994 6.45988 4.30994L6.12988 18.4099C12.8111 17.506 19.5479 17.0749 26.2899 17.1199V17.1199Z" fill="#F06351"/>
<path d="M12.4099 14C12.4099 13.91 13.4099 14.68 13.8199 14.92C14.2299 15.16 14.4299 15.34 14.4299 15.51C14.4299 15.68 14.1599 15.85 13.7999 15.85C13.4399 15.85 12.8899 15.73 12.7999 15.58H13.7399H14.0299C13.4206 15.1293 12.8756 14.5978 12.4099 14V14Z" fill="black"/>
<path d="M19.8901 14.11L18.8001 15.44C18.8001 15.5 18.6301 15.79 18.9801 15.74C19.3943 15.6783 19.8024 15.5812 20.2001 15.45C20.3101 15.45 20.2701 15.26 20.0901 15.28C19.9101 15.3 19.4001 15.33 19.0901 15.39L19.9301 14.13C19.9301 14.13 20.0001 14 19.8901 14.11Z" fill="black"/>
<path d="M16.7499 20.2C17.2134 19.9958 17.5966 19.6442 17.8399 19.2C18.1199 18.55 17.8399 18.29 17.3999 18.2C16.7978 18.0901 16.1764 18.2116 15.6599 18.54C15.2699 18.9 15.3199 19.26 15.6099 19.54C15.9612 19.8062 16.3441 20.0279 16.7499 20.2V20.2Z" fill="black"/>
<path d="M16.35 21.4501C16.238 21.6786 16.0816 21.8825 15.89 22.05C15.6052 22.2792 15.2551 22.4122 14.89 22.43C14.3639 22.472 13.8406 22.319 13.42 22C13.2223 21.8808 13.0436 21.7325 12.89 21.56C12.7895 21.4492 12.6669 21.3606 12.53 21.3C12.53 21.3 13.28 25.4 15.1 26.05C16.92 26.7 17.24 25.3 17.3 24.92C17.3602 23.7852 17.0742 22.6588 16.48 21.6901C16.46 21.3801 16.45 21.5801 16.35 21.4501Z" fill="#F06351"/>
<path d="M14.7099 22.59C14.2452 22.5247 13.7988 22.3651 13.3981 22.1209C12.9974 21.8767 12.6509 21.5531 12.3799 21.17C12.3666 21.1569 12.356 21.1414 12.3488 21.1242C12.3416 21.107 12.3379 21.0886 12.3379 21.07C12.3379 21.0513 12.3416 21.0329 12.3488 21.0157C12.356 20.9986 12.3666 20.983 12.3799 20.97C12.3929 20.9567 12.4085 20.9461 12.4257 20.9389C12.4428 20.9317 12.4613 20.9279 12.4799 20.9279C12.4985 20.9279 12.517 20.9317 12.5341 20.9389C12.5513 20.9461 12.5669 20.9567 12.5799 20.97C13.0847 21.6642 13.8429 22.1313 14.6899 22.27V22.27C15.0216 22.245 15.3425 22.1413 15.626 21.9673C15.9095 21.7934 16.1474 21.5543 16.3199 21.27L16.4599 21.08L16.5599 21.29C16.5599 21.29 16.9299 22.05 17.5599 22.09C18.1899 22.13 18.6099 21.68 19.1699 20.81C19.1829 20.7967 19.1985 20.7861 19.2157 20.7789C19.2328 20.7717 19.2513 20.7679 19.2699 20.7679C19.2885 20.7679 19.307 20.7717 19.3241 20.7789C19.3413 20.7861 19.3569 20.7967 19.3699 20.81C19.4022 20.8306 19.4254 20.8628 19.4347 20.9C19.444 20.9372 19.4387 20.9766 19.4199 21.01C18.7799 22.01 18.1499 22.45 17.5399 22.41C17.3079 22.3762 17.0866 22.2903 16.8926 22.1587C16.6986 22.027 16.537 21.8531 16.4199 21.65C16.2232 21.9244 15.9675 22.1514 15.6716 22.314C15.3757 22.4767 15.0471 22.571 14.7099 22.59V22.59Z" fill="black"/>
<path d="M26.24 18.92C24.4444 20.5436 22.7512 22.277 21.17 24.11C19.5986 25.9361 17.8238 27.5767 15.88 29C15.66 28.47 14.26 27.49 14.26 27.49C14.26 27.49 11.13 25.35 9.07995 23.67C7.97409 22.7373 6.92865 21.7353 5.94995 20.67L3.94995 20.56C6.84013 24.7655 11.0702 27.8675 15.95 29.36C16.81 29.22 19.22 27.5 21.02 26.1C23.1388 24.2818 25.124 22.3134 26.9599 20.21C27.4624 19.621 27.8492 18.9424 28.1 18.21C27 18.6 26.24 18.92 26.24 18.92Z" fill="#F06351"/>
</g>
<g clip-path="url(#clip1)">
<path d="M91.2645 29.5385C90.3696 28.2762 89.9253 26.7627 90 25.2308V18.8462C89.8916 17.2977 90.3081 15.7575 91.1855 14.4615C92.0548 13.4615 93.3983 13 95.374 13C97.3498 13 98.6143 13.4615 99.4045 14.3077C100.263 15.3794 100.685 16.7214 100.59 18.0769V19.6154H96.7175V17.8462C96.7488 17.3229 96.6681 16.799 96.4804 16.3077C96.3802 16.1094 96.2212 15.9448 96.024 15.8351C95.8269 15.7255 95.6005 15.6757 95.374 15.6923C94.8208 15.6923 94.4257 15.8462 94.2676 16.2308C94.0888 16.7773 94.0086 17.3499 94.0305 17.9231V26.1538C93.9888 26.71 94.0978 27.267 94.3466 27.7692C94.5047 28.1538 94.8999 28.3077 95.4531 28.3077C96.0063 28.3077 96.3224 28.1538 96.4804 27.7692C96.6601 27.2494 96.7405 26.7019 96.7175 26.1538V24.3077H100.59V25.8462C100.67 27.2238 100.251 28.5852 99.4045 29.6923C98.6143 30.6154 97.2707 31.0769 95.374 31.0769C93.4773 31 92.0548 30.5385 91.2645 29.5385Z" fill="#111111"/>
<path d="M105.253 13.2307H109.757L113.077 30.7692H109.441L108.809 27.0769H106.201L105.569 30.7692H101.854L105.253 13.2307ZM108.493 24.7692L107.545 17.923L106.596 24.7692H108.493Z" fill="#111111"/>
<path d="M115.843 16.1538H113.156V13.2307H122.56V16.0769H119.873V30.7692H115.843V16.1538Z" fill="#111111"/>
<path d="M129.752 13.2307H136.706V15.0769H132.202V20.8461H135.837V22.6153H132.202V29.0769H136.706V30.8461H129.673V13.2307H129.752Z" fill="#111111"/>
<path d="M138.761 13.2307H140.5L145.637 24.8461V13.2307H147.692V30.7692H146.111L140.895 18.7692V30.7692H138.761V13.2307Z" fill="#111111"/>
<path d="M150.062 13.2307H157.017V15.0769H152.512V20.8461H156.148V22.6153H152.512V29.0769H157.017V30.8461H150.062V13.2307Z" fill="#111111"/>
<path d="M159.072 13.2308H162.707C164.137 13.1347 165.559 13.5144 166.738 14.3077C167.607 15.0001 168.002 16.2308 168.002 17.8462C168.002 20.077 167.291 21.4616 165.789 21.9231L168.318 30.6924H165.869L163.498 22.4616H161.522V30.6924H158.993V13.2308H159.072ZM162.549 20.7693C163.364 20.8346 164.176 20.6166 164.841 20.1539C165.315 19.7693 165.552 19.0001 165.552 17.8462C165.574 17.273 165.494 16.7005 165.315 16.1539C165.137 15.7617 164.832 15.4374 164.446 15.2308C163.902 14.9894 163.304 14.8837 162.707 14.9231H161.601V20.6924H162.549V20.7693Z" fill="#111111"/>
<path d="M171.164 29.4616C170.342 28.1166 169.956 26.5617 170.057 25V19.1539C170.038 18.0391 170.171 16.9268 170.452 15.8462C170.717 15.0386 171.244 14.3367 171.954 13.8462C172.836 13.3378 173.854 13.0967 174.878 13.1539C176.538 13.1539 177.723 13.5385 178.434 14.3846C179.253 15.5019 179.644 16.8624 179.541 18.2308V18.8462H177.17V18.3077C177.173 17.6635 177.121 17.0201 177.012 16.3846C176.945 15.9831 176.718 15.6235 176.38 15.3846C175.935 15.1008 175.408 14.9658 174.878 15C174.311 14.9647 173.751 15.1284 173.297 15.4616C173.112 15.614 172.96 15.8018 172.851 16.0135C172.742 16.2251 172.679 16.4561 172.665 16.6923C172.561 17.38 172.508 18.0741 172.507 18.7692V25.3077C172.449 26.3039 172.611 27.3006 172.981 28.2308C173.297 28.8462 173.93 29.0769 174.878 29.0769C175.252 29.1224 175.632 29.059 175.97 28.8947C176.307 28.7305 176.587 28.4727 176.775 28.1539C177.192 27.1811 177.381 26.1299 177.328 25.0769V23.8462H175.036V22.0769H179.62V30.7692H178.039L177.802 28.7692C177.595 29.4395 177.164 30.0232 176.576 30.4274C175.989 30.8316 175.28 31.0331 174.562 31C173.909 31.0374 173.257 30.9164 172.663 30.6479C172.07 30.3794 171.555 29.9717 171.164 29.4616V29.4616Z" fill="#111111"/>
<path d="M184.678 24.6154L180.805 13.3077H183.176L185.942 21.7693L188.629 13.3077H191L187.128 24.6154V30.7693H184.757V24.6154H184.678Z" fill="#111111"/>
</g>
<defs>
<clipPath id="clip0">
<rect width="33.32" height="37.61" fill="white"/>
</clipPath>
<clipPath id="clip1">
<rect width="101" height="18" fill="white" transform="translate(90 13)"/>
</clipPath>
</defs>
</svg>
