<svg width="67" height="28" viewBox="0 0 67 28" fill="none" xmlns="http://www.w3.org/2000/svg">
<g clip-path="url(#clip0)">
<path d="M61.5498 2.90003C62.1271 1.98157 62.8943 1.19734 63.7998 0.600034C64.2998 0.250034 64.5998 0.250034 64.8998 0.900034C65.2998 1.85003 65.6498 2.85003 65.3498 3.90003C65.2953 4.07812 65.285 4.26683 65.3198 4.4498C65.3547 4.63278 65.4336 4.80448 65.5498 4.95003C65.8498 5.35003 66.0998 5.75003 66.3498 6.10003C66.6901 6.53192 66.9108 7.04569 66.9898 7.5898C67.0688 8.13392 67.0033 8.68923 66.7998 9.20004C66.6163 9.69594 66.5815 10.2347 66.6998 10.75C66.7998 11.245 66.7998 11.755 66.6998 12.25C66.6594 12.6207 66.5094 12.971 66.2689 13.256C66.0285 13.541 65.7085 13.7478 65.3498 13.85C64.7103 13.9717 64.1395 14.3285 63.7498 14.85C63.7026 14.9268 63.6364 14.9902 63.5576 15.034C63.4788 15.0778 63.39 15.1005 63.2998 15.1C62.6998 15.2 61.1998 13.85 61.1998 13.25V12.95C61.2498 11.15 61.1498 11 59.4998 10.25C59.1545 10.1282 58.8451 9.92198 58.5998 9.65003C58.2998 9.25004 57.8998 9.30004 57.4498 9.45004C56.9998 9.60004 56.7498 9.90003 56.7998 10.4C56.9506 11.6105 57.0008 12.8313 56.9498 14.05C56.9532 14.1891 56.9873 14.3257 57.0498 14.45C58.5998 16.7 59.1998 19.35 59.9498 21.9C60.5498 23.85 61.6498 24.9 63.6498 25.05C63.9699 25.0756 64.2875 25.1257 64.5998 25.2C65.0107 25.2661 65.3924 25.4538 65.6955 25.7391C65.9985 26.0243 66.2091 26.3939 66.2998 26.8C66.6498 27.85 66.4498 28.1 65.3998 28.1H62.1498C61.7291 28.1213 61.3166 27.9778 60.9998 27.7C60.4938 27.273 59.919 26.9348 59.2998 26.7C58.6154 26.4474 58.023 25.9944 57.5998 25.4C57.0142 24.5818 56.3438 23.8276 55.5998 23.15C54.1998 21.7 52.6998 20.3 51.3998 18.8C50.4102 17.7779 49.8393 16.4222 49.7998 15C49.7998 14.55 49.6998 14.35 49.1998 14.55C49.0501 14.645 48.8771 14.6969 48.6998 14.7C47.2998 14.7 46.5998 15.55 46.0998 16.8C45.6498 17.85 45.0498 18.85 44.4998 19.9C44.188 20.5573 44.0176 21.2728 43.9998 22C43.9998 23.2 44.2998 23.6 45.3998 24C46.0998 24.25 46.7498 24.5 47.0998 25.2C47.4998 26 47.3998 26.2 46.5498 26.25H43.1498C42.9538 26.2695 42.7567 26.2268 42.5862 26.1281C42.4158 26.0294 42.2806 25.8797 42.1998 25.7L41.2998 24.2C41.0345 23.8087 40.8647 23.3605 40.8039 22.8916C40.7431 22.4227 40.7931 21.9461 40.9498 21.5C41.1662 20.6318 41.1833 19.7258 40.9998 18.85C40.8738 18.2401 40.8847 17.6098 41.0317 17.0046C41.1786 16.3993 41.4581 15.8342 41.8498 15.35C42.1498 15 42.1498 14.85 41.6498 14.75C39.6053 14.3157 37.6232 13.627 35.7498 12.7C35.7366 12.7 35.7239 12.6948 35.7145 12.6854C35.7051 12.676 35.6998 12.6633 35.6998 12.65C34.0998 12.05 33.7998 12.15 33.3498 13.8C32.9498 15.2 32.5498 16.6 32.2498 18.05C31.8998 19.65 32.2998 21.15 32.7998 22.65C32.9998 23.25 33.5998 23.2 34.0498 23.35C35.0498 23.65 35.8998 24.05 36.2998 25.1C36.6498 25.9 36.5998 26 35.7498 26C34.8998 26 34.0498 25.95 33.1498 26C32.3904 26.0138 31.6491 25.7667 31.0498 25.3C28.6498 23.7 27.9498 21.25 27.7498 18.6C27.6498 16.95 26.7498 15.65 25.6998 14.4C25.4998 14.15 25.2998 14.05 24.9998 14.25C23.9266 14.8418 22.8061 15.3435 21.6498 15.75C19.237 16.602 17.1197 18.1293 15.5498 20.15C14.9637 20.8875 14.584 21.7676 14.4498 22.7C14.2998 23.6 14.5498 24 15.4498 24.25C16.3498 24.5 16.7998 25 16.8998 25.95C16.9498 26.35 16.7998 26.55 16.3998 26.55H12.3498C12.2173 26.5406 12.089 26.4994 11.9758 26.4297C11.8626 26.3601 11.768 26.2641 11.6998 26.15C11.0718 25.3724 10.7357 24.3995 10.7498 23.4C10.7236 21.6725 10.8744 19.9468 11.1998 18.25C11.2666 17.7419 11.4563 17.2577 11.7525 16.8395C12.0488 16.4212 12.4426 16.0816 12.8998 15.85C15.8498 14.45 17.3998 11.8 18.7998 9.05004C19.0998 8.50004 18.8498 8.40003 18.3498 8.45004C16.9505 8.6443 15.6247 9.19529 14.4998 10.05C13.0269 11.1245 11.6395 12.3113 10.3498 13.6C8.97466 14.9969 7.15119 15.8643 5.19984 16.05C1.54984 16.25 -0.150162 14.2 -0.000162372 10.9C0.0333689 9.77483 0.457661 8.69642 1.19984 7.85004C1.45785 7.51553 1.8097 7.26553 2.21047 7.13194C2.61124 6.99835 3.04273 6.98724 3.44984 7.10004C4.19984 7.30003 4.39984 7.70004 4.09984 8.45004C3.94984 8.75004 3.74984 9.00004 3.59984 9.30004C3.38414 9.60651 3.2156 9.94359 3.09984 10.3C2.54984 11.8 3.29984 12.85 4.84984 13C6.49984 13.15 7.84984 12.45 9.09984 11.45C10.6058 10.2442 11.9502 8.84935 13.0998 7.30004C13.9595 6.16874 15.0419 5.22568 16.2802 4.5291C17.5186 3.83252 18.8866 3.3972 20.2998 3.25003C21.4498 3.10003 22.4498 2.60003 23.5498 2.30003C25.6071 1.67284 27.7493 1.36921 29.8998 1.40003C30.8959 1.44152 31.8881 1.25333 32.7998 0.850034C35.2498 -0.149966 37.7998 -0.149966 40.3498 0.350034C42.3498 0.750034 44.3498 1.25003 46.2998 1.75003C47.4603 1.96627 48.6536 1.93218 49.7998 1.65003C51.9942 1.0938 54.2387 0.758795 56.4998 0.650034C57.9811 0.577967 59.4574 0.869803 60.7998 1.50003C61.7998 1.95003 61.7998 1.95003 61.5498 2.90003Z" fill="black"/>
</g>
<defs>
<clipPath id="clip0">
<rect width="67" height="28" fill="white"/>
</clipPath>
</defs>
</svg>
