<svg width="134" height="56" viewBox="0 0 134 56" fill="none" xmlns="http://www.w3.org/2000/svg">
<g clip-path="url(#clip0)">
<path d="M123.1 5.80001C124.255 3.96309 125.789 2.39461 127.6 1.20001C128.6 0.500006 129.2 0.500006 129.8 1.80001C130.6 3.70001 131.3 5.70001 130.7 7.80001C130.591 8.15618 130.57 8.5336 130.64 8.89955C130.71 9.26549 130.868 9.6089 131.1 9.90001C131.7 10.7 132.2 11.5 132.7 12.2C133.381 13.0638 133.822 14.0913 133.98 15.1795C134.138 16.2678 134.007 17.3784 133.6 18.4C133.233 19.3918 133.163 20.4692 133.4 21.5C133.6 22.49 133.6 23.51 133.4 24.5C133.319 25.2414 133.019 25.9419 132.538 26.5119C132.057 27.0819 131.417 27.4956 130.7 27.7C129.421 27.9434 128.279 28.6569 127.5 29.7C127.406 29.8536 127.273 29.9803 127.116 30.0679C126.958 30.1555 126.78 30.201 126.6 30.2C125.4 30.4 122.4 27.7 122.4 26.5V25.9C122.5 22.3 122.3 22 119 20.5C118.309 20.2564 117.691 19.8439 117.2 19.3C116.6 18.5 115.8 18.6 114.9 18.9C114 19.2 113.5 19.8 113.6 20.8C113.902 23.2209 114.002 25.6626 113.9 28.1C113.907 28.3782 113.975 28.6514 114.1 28.9C117.2 33.4 118.4 38.7 119.9 43.8C121.1 47.7 123.3 49.8 127.3 50.1C127.94 50.1511 128.575 50.2514 129.2 50.4C130.022 50.532 130.785 50.9076 131.391 51.478C131.997 52.0485 132.419 52.7877 132.6 53.6C133.3 55.7 132.9 56.2 130.8 56.2H124.3C123.459 56.2426 122.634 55.9556 122 55.4C120.988 54.5459 119.838 53.8696 118.6 53.4C117.231 52.8947 116.046 51.9887 115.2 50.8C114.029 49.1635 112.688 47.6551 111.2 46.3C108.4 43.4 105.4 40.6 102.8 37.6C100.821 35.5558 99.6791 32.8443 99.6 30C99.6 29.1 99.4 28.7 98.4 29.1C98.1006 29.29 97.7546 29.3938 97.4 29.4C94.6 29.4 93.2 31.1 92.2 33.6C91.3 35.7 90.1 37.7 89 39.8C88.3763 41.1145 88.0356 42.5454 88 44C88 46.4 88.6 47.2 90.8 48C92.2 48.5 93.5 49 94.2 50.4C95 52 94.8 52.4 93.1 52.5H86.3C85.908 52.5388 85.5137 52.4535 85.1728 52.2562C84.8319 52.0588 84.5616 51.7593 84.4 51.4L82.6 48.4C82.0695 47.6172 81.7298 46.721 81.6082 45.7832C81.4866 44.8454 81.5866 43.8922 81.9 43C82.3328 41.2635 82.367 39.4516 82 37.7C81.748 36.4801 81.7697 35.2195 82.0637 34.009C82.3576 32.7986 82.9165 31.6684 83.7 30.7C84.3 30 84.3 29.7 83.3 29.5C79.2109 28.6314 75.2468 27.254 71.5 25.4C71.4735 25.4 71.4481 25.3895 71.4293 25.3707C71.4106 25.352 71.4 25.3265 71.4 25.3C68.2 24.1 67.6 24.3 66.7 27.6C65.9 30.4 65.1 33.2 64.5 36.1C63.8 39.3 64.6 42.3 65.6 45.3C66 46.5 67.2 46.4 68.1 46.7C70.1 47.3 71.8 48.1 72.6 50.2C73.3 51.8 73.2 52 71.5 52C69.8 52 68.1 51.9 66.3 52C64.7811 52.0275 63.2987 51.5334 62.1 50.6C57.3 47.4 55.9 42.5 55.5 37.2C55.3 33.9 53.5 31.3 51.4 28.8C51 28.3 50.6 28.1 50 28.5C47.8535 29.6836 45.6125 30.687 43.3 31.5C38.4743 33.204 34.2397 36.2585 31.1 40.3C29.9277 41.775 29.1684 43.5351 28.9 45.4C28.6 47.2 29.1 48 30.9 48.5C32.7 49 33.6 50 33.8 51.9C33.9 52.7 33.6 53.1 32.8 53.1H24.7C24.4349 53.0812 24.1783 52.9987 23.952 52.8594C23.7256 52.7201 23.5363 52.5282 23.4 52.3C22.1439 50.7448 21.4717 48.799 21.5 46.8C21.4476 43.3449 21.7491 39.8936 22.4 36.5C22.5335 35.4837 22.913 34.5153 23.5054 33.6788C24.0979 32.8424 24.8856 32.1631 25.8 31.7C31.7 28.9 34.8 23.6 37.6 18.1C38.2 17 37.7 16.8 36.7 16.9C33.9014 17.2885 31.2497 18.3905 29 20.1C26.0542 22.2488 23.2793 24.6226 20.7 27.2C17.9497 29.9937 14.3027 31.7286 10.4 32.1C3.10004 32.5 -0.299959 28.4 4.14662e-05 21.8C0.067104 19.5496 0.915689 17.3928 2.40004 15.7C2.91606 15.031 3.61977 14.531 4.42131 14.2638C5.22284 13.9966 6.08582 13.9744 6.90004 14.2C8.40004 14.6 8.80004 15.4 8.20004 16.9C7.90004 17.5 7.50004 18 7.20004 18.6C6.76864 19.213 6.43156 19.8871 6.20004 20.6C5.10004 23.6 6.60004 25.7 9.70004 26C13 26.3 15.7 24.9 18.2 22.9C21.212 20.4882 23.9008 17.6986 26.2 14.6C27.9193 12.3374 30.0841 10.4513 32.5609 9.05813C35.0376 7.66497 37.7736 6.79434 40.6 6.50001C42.9 6.20001 44.9 5.20001 47.1 4.60001C51.2145 3.34561 55.499 2.73836 59.8 2.80001C61.7921 2.88297 63.7766 2.5066 65.6 1.70001C70.5 -0.299994 75.6 -0.299994 80.7 0.700006C84.7 1.50001 88.7 2.50001 92.6 3.50001C94.921 3.93248 97.3076 3.8643 99.6 3.30001C103.989 2.18754 108.478 1.51753 113 1.30001C115.963 1.15587 118.915 1.73954 121.6 3.00001C123.6 3.90001 123.6 3.90001 123.1 5.80001Z" fill="black"/>
</g>
<defs>
<clipPath id="clip0">
<rect width="134" height="56" fill="white"/>
</clipPath>
</defs>
</svg>
