<svg width="20" height="21" viewBox="0 0 20 21" fill="none" xmlns="http://www.w3.org/2000/svg">
<g clip-path="url(#clip0)">
<path d="M17.9 9.75275H9.40002V10.9569H17.9L15.8 13.0641L16.7 13.9672L19.8 10.8565C19.8974 10.7263 19.95 10.5678 19.95 10.405C19.95 10.2421 19.8974 10.0837 19.8 9.95344L16.7 6.84277L15.8 7.74587L17.9 9.75275Z" fill="black"/>
<path d="M8.09995 19.7872V13.5659C8.0884 13.41 8.02148 13.2635 7.91136 13.153C7.80125 13.0425 7.65525 12.9754 7.49995 12.9638H3.09995C3.1051 13.2815 3.23318 13.5848 3.45712 13.8095C3.68106 14.0342 3.9833 14.1627 4.29995 14.1679H6.79995V19.1851H3.09995C2.86319 19.2 2.62585 19.1676 2.4017 19.0896C2.17756 19.0117 1.97109 18.8898 1.7943 18.7311C1.61751 18.5723 1.47393 18.3799 1.37189 18.165C1.26986 17.9501 1.21142 17.717 1.19995 17.4793V3.43111C1.19175 2.96681 1.3651 2.51774 1.68286 2.18013C2.00062 1.84252 2.43752 1.64322 2.89995 1.62492H6.79995V6.64212H4.39995C4.0833 6.64729 3.78106 6.77581 3.55712 7.00052C3.33318 7.22523 3.2051 7.52851 3.19995 7.84625H7.59995C7.75525 7.83466 7.90125 7.76751 8.01136 7.65701C8.12148 7.54651 8.1884 7.40002 8.19995 7.24418V0.922517C8.15226 0.76584 8.06111 0.626022 7.93715 0.519407C7.81319 0.412792 7.66155 0.343785 7.49995 0.320453H3.09995C2.70593 0.307054 2.31315 0.371716 1.94405 0.510744C1.57495 0.649771 1.23678 0.860436 0.948872 1.13069C0.660965 1.40095 0.428969 1.7255 0.266146 2.08579C0.103324 2.44608 0.0128689 2.83504 -4.64045e-05 3.23043V17.1782C-0.0290254 17.5773 0.0245894 17.978 0.157426 18.3552C0.290263 18.7324 0.499448 19.078 0.771825 19.3701C1.0442 19.6623 1.37388 19.8947 1.74012 20.0529C2.10637 20.211 2.50126 20.2913 2.89995 20.2889H7.49995C7.57344 20.304 7.64937 20.3022 7.7221 20.2839C7.79484 20.2655 7.86253 20.2309 7.92015 20.1828C7.97777 20.1346 8.02385 20.074 8.05497 20.0055C8.0861 19.9371 8.10147 19.8624 8.09995 19.7872Z" fill="black"/>
</g>
<defs>
<clipPath id="clip0">
<rect width="20" height="20.0688" fill="white" transform="translate(0 0.320435)"/>
</clipPath>
</defs>
</svg>
